<svg xmlns="http://www.w3.org/2000/svg" width="300" height="200" viewBox="0 0 300 200"><rect width="100%" height="100%" fill="#DDDDDD"/><path fill="#999999" d="M59.935 91.605v13.74h-2.57v-13.74zm5.04 13.74h-2.35v-9.75h1.44q.45 0 .6.43l.15.72q.26-.28.54-.52t.59-.41q.32-.17.69-.27.36-.1.8-.1.92 0 1.52.5.59.5.88 1.33.23-.49.57-.84.35-.34.76-.56.4-.22.86-.32.47-.11.93-.11.81 0 1.44.25.62.25 1.05.72t.65 1.16q.22.68.22 1.57v6.2h-2.34v-6.2q0-.93-.41-1.4t-1.2-.47q-.36 0-.67.12t-.54.35q-.23.24-.37.59-.13.35-.13.81v6.2h-2.35v-6.2q0-.98-.4-1.43-.39-.44-1.15-.44-.52 0-.96.25t-.82.69zm18.72-2.52v-1.64q-1.02.05-1.71.17-.7.13-1.12.33-.41.2-.59.47-.18.26-.18.58 0 .62.36.88.37.27.96.27.72 0 1.24-.26.53-.27 1.04-.8m-4.96-5.12-.42-.75q1.68-1.54 4.05-1.54.85 0 1.53.28.67.28 1.14.78.46.5.7 1.19.25.7.25 1.52v6.16h-1.07q-.33 0-.51-.1t-.29-.4l-.21-.71q-.37.34-.72.59t-.73.42-.81.26-.96.09q-.61 0-1.14-.16-.52-.17-.9-.5-.38-.34-.59-.83t-.21-1.15q0-.37.13-.74.12-.36.4-.69.28-.34.73-.63.44-.29 1.09-.51.66-.22 1.52-.36t1.98-.17v-.57q0-.97-.42-1.44t-1.21-.47q-.57 0-.94.13-.38.13-.66.3-.29.16-.52.3-.23.13-.52.13-.25 0-.42-.13t-.27-.3m13.01 2.53q.44 0 .76-.12t.54-.33q.21-.21.32-.5.11-.3.11-.65 0-.72-.43-1.14t-1.3-.42q-.86 0-1.3.42-.43.42-.43 1.14 0 .34.11.64.11.29.32.51.22.21.55.33.32.12.75.12m2.65 5.55q0-.29-.17-.47t-.46-.28q-.3-.1-.69-.15-.4-.04-.84-.07l-.91-.04q-.47-.02-.92-.08-.39.22-.63.52-.24.29-.24.68 0 .26.13.48.12.22.4.39.29.16.73.25.45.09 1.09.09.66 0 1.13-.1.48-.1.79-.28.31-.17.45-.42.14-.24.14-.52m-.46-9.85h2.8v.87q0 .42-.5.51l-.88.16q.2.51.2 1.11 0 .72-.29 1.3-.29.59-.8 1-.51.4-1.21.63-.7.22-1.51.22-.28 0-.55-.03t-.52-.07q-.46.27-.46.61 0 .3.27.44.27.13.72.19t1.02.07q.57.02 1.17.06.59.05 1.16.17t1.02.37q.45.26.72.7t.27 1.14q0 .64-.32 1.25t-.92 1.09q-.6.47-1.48.76t-2 .29q-1.11 0-1.92-.21-.82-.22-1.36-.57-.54-.36-.81-.83-.26-.46-.26-.97 0-.68.41-1.14t1.13-.74q-.39-.2-.61-.53-.23-.33-.23-.87 0-.22.08-.45.08-.24.24-.46.15-.23.39-.44.24-.2.56-.36-.74-.4-1.16-1.07-.42-.66-.42-1.55 0-.73.28-1.31.29-.58.81-1 .52-.41 1.23-.63t1.54-.22q.63 0 1.18.13t1.01.38m6.13 3.42h4.43q0-.46-.13-.86-.13-.41-.38-.71-.26-.31-.65-.48-.4-.18-.92-.18-1.02 0-1.6.58t-.75 1.65m5.99 1.41h-6.03q.05.75.26 1.3.21.54.55.9.35.36.82.53.47.18 1.04.18t.98-.13q.41-.14.72-.3t.54-.29q.24-.14.45-.14.3 0 .44.22l.68.86q-.39.45-.88.76-.48.31-1.01.5-.53.18-1.07.26-.55.07-1.06.07-1.02 0-1.89-.33-.88-.34-1.52-1-.65-.66-1.02-1.64-.37-.97-.37-2.25 0-1 .32-1.88.33-.88.93-1.53t1.47-1.03 1.96-.38q.92 0 1.7.3.78.29 1.34.86.56.56.88 1.38t.32 1.88q0 .53-.11.72-.12.18-.44.18m4.34-4.74.16.77q.3-.29.62-.55.33-.25.7-.42.36-.18.78-.28t.91-.1q.8 0 1.42.27t1.03.76.63 1.17q.21.68.21 1.5v6.2h-2.35v-6.2q0-.9-.4-1.39-.41-.48-1.25-.48-.61 0-1.14.27-.53.28-1.01.75v7.05h-2.34v-9.75h1.43q.46 0 .6.43m23-4.42h2.25v13.74h-1.31q-.3 0-.51-.1-.2-.1-.39-.34l-7.17-9.16q.05.63.05 1.16v8.44h-2.25v-13.74h1.34q.16 0 .28.02.12.01.21.05.09.05.18.13.08.08.19.21l7.2 9.2q-.03-.33-.05-.66-.02-.32-.02-.6zm9.25 3.84q1.09 0 1.97.35.89.35 1.52 1 .64.65.98 1.58t.34 2.08q0 1.16-.34 2.09t-.98 1.58q-.63.66-1.52 1.01-.88.35-1.97.35t-1.98-.35q-.9-.35-1.53-1.01-.63-.65-.98-1.58-.34-.93-.34-2.09 0-1.15.34-2.08.35-.93.98-1.58t1.53-1q.89-.35 1.98-.35m0 8.24q1.22 0 1.8-.82.59-.82.59-2.39 0-1.58-.59-2.41-.58-.82-1.8-.82-1.23 0-1.83.83-.59.83-.59 2.4 0 1.56.59 2.39.6.82 1.83.82m23.79-5.21q0 1.51-.5 2.78-.51 1.26-1.42 2.17t-2.19 1.42q-1.29.5-2.85.5h-5.24v-13.74h5.24q1.56 0 2.85.51 1.28.51 2.19 1.42.91.9 1.42 2.17.5 1.26.5 2.77m-2.62 0q0-1.13-.3-2.03-.3-.89-.87-1.52-.56-.62-1.36-.95-.81-.33-1.81-.33h-2.67v9.67h2.67q1 0 1.81-.34.8-.33 1.36-.95.57-.62.87-1.52t.3-2.03m4.58-2.88h2.35v9.75h-2.35zm2.68-2.84q0 .31-.13.57-.12.27-.32.47-.21.2-.48.32-.28.11-.59.11t-.58-.11q-.27-.12-.47-.32t-.32-.47q-.12-.26-.12-.57t.12-.59q.12-.27.32-.47t.47-.32.58-.12.59.12q.27.12.48.32.2.2.32.47.13.28.13.59m8.55 3.9-.54.84q-.09.16-.19.22-.11.06-.27.06-.17 0-.37-.1-.19-.09-.45-.21-.25-.12-.58-.21-.33-.1-.78-.1-.69 0-1.08.3-.4.29-.4.76 0 .32.21.53.2.22.54.38.33.16.76.29t.87.28.87.34q.43.2.77.5.33.3.54.72.2.41.2 1 0 .71-.25 1.3t-.75 1.03q-.49.43-1.22.67-.72.24-1.67.24-.51 0-.99-.09t-.92-.25-.82-.38q-.37-.22-.66-.47l.55-.9q.1-.16.24-.25.15-.08.36-.08.22 0 .42.12.19.13.45.27.25.14.6.27.35.12.88.12.42 0 .72-.1t.49-.26q.2-.16.29-.38.09-.21.09-.44 0-.34-.21-.56-.2-.22-.54-.38t-.77-.29-.88-.28-.89-.36q-.43-.2-.77-.51-.33-.32-.54-.77-.2-.46-.2-1.11 0-.59.24-1.14.23-.54.69-.94.47-.4 1.15-.65.69-.24 1.6-.24 1 0 1.83.33.83.34 1.38.88m4.21 1.79v4.37q.4.49.87.69t1.03.2q.53 0 .95-.2.43-.2.73-.61t.46-1.03.16-1.47-.13-1.45q-.14-.59-.4-.96-.25-.37-.62-.54t-.83-.17q-.73 0-1.25.3-.51.31-.97.87m-.31-2.42.19.9q.6-.67 1.36-1.09t1.79-.42q.79 0 1.45.33.66.34 1.14.97t.74 1.56q.27.92.27 2.12 0 1.09-.3 2.02-.29.94-.84 1.62t-1.32 1.07q-.77.38-1.73.38-.82 0-1.4-.25t-1.04-.7v3.99h-2.34v-12.93h1.43q.46 0 .6.43m13.07-.58q1.09 0 1.97.35.89.35 1.52 1 .64.65.98 1.58t.34 2.08q0 1.16-.34 2.09t-.98 1.58q-.63.66-1.52 1.01-.88.35-1.97.35t-1.98-.35q-.9-.35-1.53-1.01-.63-.65-.98-1.58-.34-.93-.34-2.09 0-1.15.34-2.08.35-.93.98-1.58t1.53-1q.89-.35 1.98-.35m0 8.24q1.22 0 1.8-.82.59-.82.59-2.39 0-1.58-.59-2.41-.58-.82-1.8-.82-1.23 0-1.83.83-.59.83-.59 2.4 0 1.56.59 2.39.6.82 1.83.82m8.64-7.66.16.77q.29-.29.62-.55.33-.25.7-.42.36-.18.78-.28t.91-.1q.8 0 1.42.27.61.27 1.03.76.41.49.62 1.17.22.68.22 1.5v6.2h-2.35v-6.2q0-.9-.41-1.39-.4-.48-1.24-.48-.61 0-1.14.27-.53.28-1.01.75v7.05h-2.34v-9.75h1.43q.46 0 .6.43m8.76-.43h2.35v9.75h-2.35zm2.68-2.84q0 .31-.13.57-.12.27-.32.47-.21.2-.48.32-.28.11-.59.11t-.58-.11q-.27-.12-.47-.32t-.32-.47q-.12-.26-.12-.57t.12-.59q.12-.27.32-.47t.47-.32.58-.12.59.12q.27.12.48.32.2.2.32.47.13.28.13.59m4.41 5.69v4.37q.4.49.87.69t1 .2q.54 0 .97-.2.43-.19.74-.61.3-.41.46-1.05t.16-1.54q0-1.6-.53-2.32-.53-.71-1.53-.71-.67 0-1.18.3-.5.31-.96.87m0-7.22v5.57q.59-.62 1.31-.98.72-.37 1.64-.37.84 0 1.52.33.68.34 1.16.96t.74 1.5q.26.89.26 1.99 0 1.19-.3 2.16-.29.97-.84 1.65-.55.69-1.32 1.07t-1.71.38q-.45 0-.82-.09t-.69-.25q-.31-.16-.57-.39-.26-.24-.5-.52l-.1.65q-.06.25-.2.36-.14.1-.37.1h-1.55v-14.12zm8.47 0h2.35v14.12h-2.35zm6.54 8.13h4.43q0-.46-.13-.86-.13-.41-.38-.71-.26-.31-.65-.48-.4-.18-.92-.18-1.02 0-1.6.58t-.75 1.65m5.99 1.41h-6.03q.05.75.26 1.3.21.54.55.9.35.36.82.53.47.18 1.04.18t.98-.13q.41-.14.72-.3t.54-.29q.24-.14.45-.14.3 0 .44.22l.68.86q-.39.45-.88.76-.48.31-1.01.5-.53.18-1.07.26-.55.07-1.06.07-1.02 0-1.89-.33-.88-.34-1.52-1-.65-.66-1.02-1.64-.37-.97-.37-2.25 0-1 .32-1.88.33-.88.93-1.53t1.47-1.03 1.96-.38q.92 0 1.7.3.78.29 1.34.86.56.56.88 1.38t.32 1.88q0 .53-.11.72-.12.18-.44.18"/></svg>